# xmcd
#
# Track frame offsets:
#	150
#	18777
#	49200
#	67756
#	83993
#	107731
#	133553
#	157229
#	178035
#	199345
#	219951
#
# Disc length: 3361 seconds
# Revision: 0
# Processed by: cddbd v1.5.2PL0 Copyright (c) Steve Scherf et al.
# Submitted via: dBpowerAMP V12.0
#
DISCID=940d1f0b
DTITLE=Various Artist - Remembering Little Walter
DYEAR=2013
DGENRE=Blues
TTITLE0=Mark Hummel - I Got To Go
TTITLE1=Charlie Musselwhite - Just a Feeling
TTITLE2=Billy Boy Arnold - You're So Fine
TTITLE3=James Harman - It's Too Late Brother
TTITLE4=Sugar Ray Norcia - Mean Old World
TTITLE5=Charlie Musselwhite - One of These Mornings
TTITLE6=Mark Hummel - Blue Light
TTITLE7=James Harman - Crazy Mixed Up World
TTITLE8=Sugar Ray Norcia - Up the Line
TTITLE9=Billy Boy Arnold - Can't Hold Out Much Longer
TTITLE10=Sugar Ray Norcia - My Babe
EXTD=
EXTT0=
EXTT1=
EXTT2=
EXTT3=
EXTT4=
EXTT5=
EXTT6=
EXTT7=
EXTT8=
EXTT9=
EXTT10=
PLAYORDER=
